<svg width="515" height="110" viewBox="0 0 515 110" fill="none" xmlns="http://www.w3.org/2000/svg">
<g filter="url(#filter0_d)">
<rect x="4" width="507" height="102" fill="black"/>
<path d="M123.664 29.4062L130.238 47.9688L136.777 29.4062H143.703V55H138.412V48.0039L138.939 35.9277L132.031 55H128.41L121.52 35.9453L122.047 48.0039V55H116.773V29.4062H123.664ZM147.184 45.3145C147.184 43.4277 147.547 41.7461 148.273 40.2695C149 38.793 150.043 37.6504 151.402 36.8418C152.773 36.0332 154.361 35.6289 156.166 35.6289C158.732 35.6289 160.824 36.4141 162.441 37.9844C164.07 39.5547 164.979 41.6875 165.166 44.3828L165.201 45.6836C165.201 48.6016 164.387 50.9453 162.758 52.7148C161.129 54.4727 158.943 55.3516 156.201 55.3516C153.459 55.3516 151.268 54.4727 149.627 52.7148C147.998 50.957 147.184 48.5664 147.184 45.543V45.3145ZM152.264 45.6836C152.264 47.4883 152.604 48.8711 153.283 49.832C153.963 50.7812 154.936 51.2559 156.201 51.2559C157.432 51.2559 158.393 50.7871 159.084 49.8496C159.775 48.9004 160.121 47.3887 160.121 45.3145C160.121 43.5449 159.775 42.1738 159.084 41.2012C158.393 40.2285 157.42 39.7422 156.166 39.7422C154.924 39.7422 153.963 40.2285 153.283 41.2012C152.604 42.1621 152.264 43.6562 152.264 45.6836ZM179.018 40.7441C178.326 40.6504 177.717 40.6035 177.189 40.6035C175.268 40.6035 174.008 41.2539 173.41 42.5547V55H168.33V35.9805H173.129L173.27 38.248C174.289 36.502 175.701 35.6289 177.506 35.6289C178.068 35.6289 178.596 35.7051 179.088 35.8574L179.018 40.7441ZM189.881 55.3516C187.092 55.3516 184.818 54.4961 183.061 52.7852C181.314 51.0742 180.441 48.7949 180.441 45.9473V45.4551C180.441 43.5449 180.811 41.8398 181.549 40.3398C182.287 38.8281 183.33 37.668 184.678 36.8594C186.037 36.0391 187.584 35.6289 189.318 35.6289C191.92 35.6289 193.965 36.4492 195.453 38.0898C196.953 39.7305 197.703 42.0566 197.703 45.0684V47.1426H185.592C185.756 48.3848 186.248 49.3809 187.068 50.1309C187.9 50.8809 188.949 51.2559 190.215 51.2559C192.172 51.2559 193.701 50.5469 194.803 49.1289L197.299 51.9238C196.537 53.002 195.506 53.8457 194.205 54.4551C192.904 55.0527 191.463 55.3516 189.881 55.3516ZM189.301 39.7422C188.293 39.7422 187.473 40.082 186.84 40.7617C186.219 41.4414 185.82 42.4141 185.645 43.6797H192.711V43.2754C192.688 42.1504 192.383 41.2832 191.797 40.6738C191.211 40.0527 190.379 39.7422 189.301 39.7422ZM214.93 55H209.832V35.9805H214.93V55ZM209.533 31.0586C209.533 30.2969 209.785 29.6699 210.289 29.1777C210.805 28.6855 211.502 28.4395 212.381 28.4395C213.248 28.4395 213.939 28.6855 214.455 29.1777C214.971 29.6699 215.229 30.2969 215.229 31.0586C215.229 31.832 214.965 32.4648 214.438 32.957C213.922 33.4492 213.236 33.6953 212.381 33.6953C211.525 33.6953 210.834 33.4492 210.307 32.957C209.791 32.4648 209.533 31.832 209.533 31.0586ZM223.807 35.9805L223.965 38.1777C225.324 36.4785 227.146 35.6289 229.432 35.6289C231.447 35.6289 232.947 36.2207 233.932 37.4043C234.916 38.5879 235.42 40.3574 235.443 42.7129V55H230.363V42.8359C230.363 41.7578 230.129 40.9785 229.66 40.498C229.191 40.0059 228.412 39.7598 227.322 39.7598C225.893 39.7598 224.82 40.3691 224.105 41.5879V55H219.025V35.9805H223.807ZM240.699 55V39.707H237.869V35.9805H240.699V34.3633C240.699 32.2305 241.309 30.5781 242.527 29.4062C243.758 28.2227 245.475 27.6309 247.678 27.6309C248.381 27.6309 249.242 27.748 250.262 27.9824L250.209 31.9199C249.787 31.8145 249.271 31.7617 248.662 31.7617C246.752 31.7617 245.797 32.6582 245.797 34.4512V35.9805H249.576V39.707H245.797V55H240.699ZM251.422 45.3145C251.422 43.4277 251.785 41.7461 252.512 40.2695C253.238 38.793 254.281 37.6504 255.641 36.8418C257.012 36.0332 258.6 35.6289 260.404 35.6289C262.971 35.6289 265.062 36.4141 266.68 37.9844C268.309 39.5547 269.217 41.6875 269.404 44.3828L269.439 45.6836C269.439 48.6016 268.625 50.9453 266.996 52.7148C265.367 54.4727 263.182 55.3516 260.439 55.3516C257.697 55.3516 255.506 54.4727 253.865 52.7148C252.236 50.957 251.422 48.5664 251.422 45.543V45.3145ZM256.502 45.6836C256.502 47.4883 256.842 48.8711 257.521 49.832C258.201 50.7812 259.174 51.2559 260.439 51.2559C261.67 51.2559 262.631 50.7871 263.322 49.8496C264.014 48.9004 264.359 47.3887 264.359 45.3145C264.359 43.5449 264.014 42.1738 263.322 41.2012C262.631 40.2285 261.658 39.7422 260.404 39.7422C259.162 39.7422 258.201 40.2285 257.521 41.2012C256.842 42.1621 256.502 43.6562 256.502 45.6836ZM283.256 40.7441C282.564 40.6504 281.955 40.6035 281.428 40.6035C279.506 40.6035 278.246 41.2539 277.648 42.5547V55H272.568V35.9805H277.367L277.508 38.248C278.527 36.502 279.939 35.6289 281.744 35.6289C282.307 35.6289 282.834 35.7051 283.326 35.8574L283.256 40.7441ZM290.48 35.9805L290.639 38.1074C291.986 36.4551 293.809 35.6289 296.105 35.6289C298.555 35.6289 300.236 36.5957 301.15 38.5293C302.486 36.5957 304.391 35.6289 306.863 35.6289C308.926 35.6289 310.461 36.2324 311.469 37.4395C312.477 38.6348 312.98 40.4395 312.98 42.8535V55H307.883V42.8711C307.883 41.793 307.672 41.0078 307.25 40.5156C306.828 40.0117 306.084 39.7598 305.018 39.7598C303.494 39.7598 302.439 40.4863 301.854 41.9395L301.871 55H296.791V42.8887C296.791 41.7871 296.574 40.9902 296.141 40.498C295.707 40.0059 294.969 39.7598 293.926 39.7598C292.484 39.7598 291.441 40.3574 290.797 41.5527V55H285.717V35.9805H290.48ZM327.922 55C327.688 54.543 327.518 53.9746 327.412 53.2949C326.182 54.666 324.582 55.3516 322.613 55.3516C320.75 55.3516 319.203 54.8125 317.973 53.7344C316.754 52.6562 316.145 51.2969 316.145 49.6562C316.145 47.6406 316.889 46.0938 318.377 45.0156C319.877 43.9375 322.039 43.3926 324.863 43.3809H327.201V42.291C327.201 41.4121 326.973 40.709 326.516 40.1816C326.07 39.6543 325.361 39.3906 324.389 39.3906C323.533 39.3906 322.859 39.5957 322.367 40.0059C321.887 40.416 321.646 40.9785 321.646 41.6934H316.566C316.566 40.5918 316.906 39.5723 317.586 38.6348C318.266 37.6973 319.227 36.9648 320.469 36.4375C321.711 35.8984 323.105 35.6289 324.652 35.6289C326.996 35.6289 328.854 36.2207 330.225 37.4043C331.607 38.5762 332.299 40.2285 332.299 42.3613V50.6055C332.311 52.4102 332.562 53.7754 333.055 54.7012V55H327.922ZM323.721 51.4668C324.471 51.4668 325.162 51.3027 325.795 50.9746C326.428 50.6348 326.896 50.1836 327.201 49.6211V46.3516H325.303C322.76 46.3516 321.406 47.2305 321.242 48.9883L321.225 49.2871C321.225 49.9199 321.447 50.4414 321.893 50.8516C322.338 51.2617 322.947 51.4668 323.721 51.4668ZM342.283 31.3047V35.9805H345.535V39.707H342.283V49.1992C342.283 49.9023 342.418 50.4062 342.688 50.7109C342.957 51.0156 343.473 51.168 344.234 51.168C344.797 51.168 345.295 51.127 345.729 51.0449V54.8945C344.732 55.1992 343.707 55.3516 342.652 55.3516C339.09 55.3516 337.273 53.5527 337.203 49.9551V39.707H334.426V35.9805H337.203V31.3047H342.283ZM353.727 55H348.629V35.9805H353.727V55ZM348.33 31.0586C348.33 30.2969 348.582 29.6699 349.086 29.1777C349.602 28.6855 350.299 28.4395 351.178 28.4395C352.045 28.4395 352.736 28.6855 353.252 29.1777C353.768 29.6699 354.025 30.2969 354.025 31.0586C354.025 31.832 353.762 32.4648 353.234 32.957C352.719 33.4492 352.033 33.6953 351.178 33.6953C350.322 33.6953 349.631 33.4492 349.104 32.957C348.588 32.4648 348.33 31.832 348.33 31.0586ZM357.137 45.3145C357.137 43.4277 357.5 41.7461 358.227 40.2695C358.953 38.793 359.996 37.6504 361.355 36.8418C362.727 36.0332 364.314 35.6289 366.119 35.6289C368.686 35.6289 370.777 36.4141 372.395 37.9844C374.023 39.5547 374.932 41.6875 375.119 44.3828L375.154 45.6836C375.154 48.6016 374.34 50.9453 372.711 52.7148C371.082 54.4727 368.896 55.3516 366.154 55.3516C363.412 55.3516 361.221 54.4727 359.58 52.7148C357.951 50.957 357.137 48.5664 357.137 45.543V45.3145ZM362.217 45.6836C362.217 47.4883 362.557 48.8711 363.236 49.832C363.916 50.7812 364.889 51.2559 366.154 51.2559C367.385 51.2559 368.346 50.7871 369.037 49.8496C369.729 48.9004 370.074 47.3887 370.074 45.3145C370.074 43.5449 369.729 42.1738 369.037 41.2012C368.346 40.2285 367.373 39.7422 366.119 39.7422C364.877 39.7422 363.916 40.2285 363.236 41.2012C362.557 42.1621 362.217 43.6562 362.217 45.6836ZM382.959 35.9805L383.117 38.1777C384.477 36.4785 386.299 35.6289 388.584 35.6289C390.6 35.6289 392.1 36.2207 393.084 37.4043C394.068 38.5879 394.572 40.3574 394.596 42.7129V55H389.516V42.8359C389.516 41.7578 389.281 40.9785 388.812 40.498C388.344 40.0059 387.564 39.7598 386.475 39.7598C385.045 39.7598 383.973 40.3691 383.258 41.5879V55H378.178V35.9805H382.959Z" fill="white"/>
</g>
<defs>
<filter id="filter0_d" x="0" y="0" width="515" height="110" filterUnits="userSpaceOnUse" color-interpolation-filters="sRGB">
<feFlood flood-opacity="0" result="BackgroundImageFix"/>
<feColorMatrix in="SourceAlpha" type="matrix" values="0 0 0 0 0 0 0 0 0 0 0 0 0 0 0 0 0 0 127 0"/>
<feOffset dy="4"/>
<feGaussianBlur stdDeviation="2"/>
<feColorMatrix type="matrix" values="0 0 0 0 0 0 0 0 0 0 0 0 0 0 0 0 0 0 0.25 0"/>
<feBlend mode="normal" in2="BackgroundImageFix" result="effect1_dropShadow"/>
<feBlend mode="normal" in="SourceGraphic" in2="effect1_dropShadow" result="shape"/>
</filter>
</defs>
</svg>
