<svg width="50" height="50" xmlns="http://www.w3.org/2000/svg">
 <!-- Created with Method Draw - http://github.com/duopixel/Method-Draw/ -->

 <g>
  <title>background</title>
  <rect fill="#fff" id="canvas_background" height="52" width="52" y="-1" x="-1"/>
  <g display="none" overflow="visible" y="0" x="0" height="100%" width="100%" id="canvasGrid">
   <rect fill="url(#gridpattern)" stroke-width="0" y="0" x="0" height="100%" width="100%"/>
  </g>
 </g>
 <g>
  <title>Layer 1</title>
  <g stroke="null" transform="matrix(0.058515638457533194,0,0,0.03920015960915567,14.34431186949699,2.0323148318737623) " id="svg_5">
   <path stroke="null" id="svg_6" d="m345.48569,484.89955l-225.1,-225.1c-5.3,-5.3 -13.8,-5.3 -19.1,0s-5.3,13.8 0,19.1l215.5,215.5l-215.5,215.5c-5.3,5.3 -5.3,13.8 0,19.1c2.6,2.6 6.1,4 9.5,4c3.4,0 6.9,-1.3 9.5,-4l225.1,-225.1c5.3,-5.2 5.3,-13.8 0.1,-19z"/>
  </g>
  <g stroke="null" transform="matrix(0.1756728527324336,0,0,0.1756728527324336,0,0) " id="svg_7"/>
  <g stroke="null" transform="matrix(0.1756728527324336,0,0,0.1756728527324336,0,0) " id="svg_8"/>
  <g stroke="null" transform="matrix(0.1756728527324336,0,0,0.1756728527324336,0,0) " id="svg_9"/>
  <g stroke="null" transform="matrix(0.1756728527324336,0,0,0.1756728527324336,0,0) " id="svg_10"/>
  <g stroke="null" transform="matrix(0.1756728527324336,0,0,0.1756728527324336,0,0) " id="svg_11"/>
  <g stroke="null" transform="matrix(0.1756728527324336,0,0,0.1756728527324336,0,0) " id="svg_12"/>
  <g stroke="null" transform="matrix(0.1756728527324336,0,0,0.1756728527324336,0,0) " id="svg_13"/>
  <g stroke="null" transform="matrix(0.1756728527324336,0,0,0.1756728527324336,0,0) " id="svg_14"/>
  <g stroke="null" transform="matrix(0.1756728527324336,0,0,0.1756728527324336,0,0) " id="svg_15"/>
  <g stroke="null" transform="matrix(0.1756728527324336,0,0,0.1756728527324336,0,0) " id="svg_16"/>
  <g stroke="null" transform="matrix(0.1756728527324336,0,0,0.1756728527324336,0,0) " id="svg_17"/>
  <g stroke="null" transform="matrix(0.1756728527324336,0,0,0.1756728527324336,0,0) " id="svg_18"/>
  <g stroke="null" transform="matrix(0.1756728527324336,0,0,0.1756728527324336,0,0) " id="svg_19"/>
  <g stroke="null" transform="matrix(0.1756728527324336,0,0,0.1756728527324336,0,0) " id="svg_20"/>
  <g stroke="null" transform="matrix(0.1756728527324336,0,0,0.1756728527324336,0,0) " id="svg_21"/>
 </g>
</svg>