<svg width="172" height="18" viewBox="0 0 172 18" fill="none" xmlns="http://www.w3.org/2000/svg">
<path d="M5.14355 1.35938L9.16113 12.7031L13.1572 1.35938H17.3896V17H14.1562V12.7246L14.4785 5.34473L10.2568 17H8.04395L3.83301 5.35547L4.15527 12.7246V17H0.932617V1.35938H5.14355ZM19.5166 11.0811C19.5166 9.92806 19.7386 8.90039 20.1826 7.99805C20.6266 7.0957 21.264 6.39746 22.0947 5.90332C22.9326 5.40918 23.903 5.16211 25.0059 5.16211C26.5742 5.16211 27.8525 5.64193 28.8408 6.60156C29.8363 7.5612 30.3913 8.86458 30.5059 10.5117L30.5273 11.3066C30.5273 13.0898 30.0296 14.5221 29.0342 15.6035C28.0387 16.6777 26.7031 17.2148 25.0273 17.2148C23.3516 17.2148 22.0124 16.6777 21.0098 15.6035C20.0143 14.5293 19.5166 13.0684 19.5166 11.2207V11.0811ZM22.6211 11.3066C22.6211 12.4095 22.8288 13.2546 23.2441 13.8418C23.6595 14.4219 24.2539 14.7119 25.0273 14.7119C25.7793 14.7119 26.3665 14.4255 26.7891 13.8525C27.2116 13.2725 27.4229 12.3486 27.4229 11.0811C27.4229 9.99967 27.2116 9.16178 26.7891 8.56738C26.3665 7.97298 25.7721 7.67578 25.0059 7.67578C24.2467 7.67578 23.6595 7.97298 23.2441 8.56738C22.8288 9.15462 22.6211 10.0677 22.6211 11.3066ZM38.9707 8.28809C38.5482 8.23079 38.1758 8.20215 37.8535 8.20215C36.679 8.20215 35.9092 8.59961 35.5439 9.39453V17H32.4395V5.37695H35.3721L35.458 6.7627C36.0811 5.69564 36.944 5.16211 38.0469 5.16211C38.3906 5.16211 38.7129 5.20866 39.0137 5.30176L38.9707 8.28809ZM45.6094 17.2148C43.9049 17.2148 42.5156 16.6921 41.4414 15.6465C40.3743 14.6009 39.8408 13.208 39.8408 11.4678V11.167C39.8408 9.99967 40.0664 8.95768 40.5176 8.04102C40.9688 7.11719 41.6061 6.4082 42.4297 5.91406C43.2604 5.41276 44.2057 5.16211 45.2656 5.16211C46.8555 5.16211 48.1051 5.66341 49.0146 6.66602C49.9313 7.66862 50.3896 9.09017 50.3896 10.9307V12.1982H42.9883C43.0885 12.9574 43.3893 13.5661 43.8906 14.0244C44.3991 14.4827 45.04 14.7119 45.8135 14.7119C47.0094 14.7119 47.944 14.2786 48.6172 13.4121L50.1426 15.1201C49.6771 15.779 49.0469 16.2946 48.252 16.667C47.457 17.0322 46.5762 17.2148 45.6094 17.2148ZM45.2549 7.67578C44.639 7.67578 44.1377 7.88346 43.751 8.29883C43.3714 8.71419 43.1279 9.30859 43.0205 10.082H47.3389V9.83496C47.3245 9.14746 47.1383 8.61751 46.7803 8.24512C46.4222 7.86556 45.9137 7.67578 45.2549 7.67578ZM61.2715 17H58.0488V1.35938H61.2715V17ZM66.9219 5.37695L67.0186 6.71973C67.8493 5.68132 68.9629 5.16211 70.3594 5.16211C71.5911 5.16211 72.5078 5.52376 73.1094 6.24707C73.7109 6.97038 74.0189 8.05176 74.0332 9.49121V17H70.9287V9.56641C70.9287 8.90755 70.7855 8.43132 70.499 8.1377C70.2126 7.83691 69.7363 7.68652 69.0703 7.68652C68.1966 7.68652 67.5413 8.05892 67.1045 8.80371V17H64V5.37695H66.9219ZM77.2451 17V7.6543H75.5156V5.37695H77.2451V4.38867C77.2451 3.08529 77.6175 2.07552 78.3623 1.35938C79.1143 0.636068 80.1634 0.274414 81.5098 0.274414C81.9395 0.274414 82.4658 0.346029 83.0889 0.489258L83.0566 2.89551C82.7988 2.83105 82.4837 2.79883 82.1113 2.79883C80.944 2.79883 80.3604 3.34668 80.3604 4.44238V5.37695H82.6699V7.6543H80.3604V17H77.2451ZM83.7979 11.0811C83.7979 9.92806 84.0199 8.90039 84.4639 7.99805C84.9079 7.0957 85.5452 6.39746 86.376 5.90332C87.2139 5.40918 88.1842 5.16211 89.2871 5.16211C90.8555 5.16211 92.1338 5.64193 93.1221 6.60156C94.1175 7.5612 94.6725 8.86458 94.7871 10.5117L94.8086 11.3066C94.8086 13.0898 94.3109 14.5221 93.3154 15.6035C92.32 16.6777 90.9844 17.2148 89.3086 17.2148C87.6328 17.2148 86.2936 16.6777 85.291 15.6035C84.2956 14.5293 83.7979 13.0684 83.7979 11.2207V11.0811ZM86.9023 11.3066C86.9023 12.4095 87.11 13.2546 87.5254 13.8418C87.9408 14.4219 88.5352 14.7119 89.3086 14.7119C90.0605 14.7119 90.6478 14.4255 91.0703 13.8525C91.4928 13.2725 91.7041 12.3486 91.7041 11.0811C91.7041 9.99967 91.4928 9.16178 91.0703 8.56738C90.6478 7.97298 90.0534 7.67578 89.2871 7.67578C88.528 7.67578 87.9408 7.97298 87.5254 8.56738C87.11 9.15462 86.9023 10.0677 86.9023 11.3066ZM103.252 8.28809C102.829 8.23079 102.457 8.20215 102.135 8.20215C100.96 8.20215 100.19 8.59961 99.8252 9.39453V17H96.7207V5.37695H99.6533L99.7393 6.7627C100.362 5.69564 101.225 5.16211 102.328 5.16211C102.672 5.16211 102.994 5.20866 103.295 5.30176L103.252 8.28809ZM107.667 5.37695L107.764 6.67676C108.587 5.66699 109.701 5.16211 111.104 5.16211C112.601 5.16211 113.629 5.75293 114.188 6.93457C115.004 5.75293 116.168 5.16211 117.679 5.16211C118.939 5.16211 119.877 5.53092 120.493 6.26855C121.109 6.99902 121.417 8.10189 121.417 9.57715V17H118.302V9.58789C118.302 8.92904 118.173 8.44922 117.915 8.14844C117.657 7.84049 117.202 7.68652 116.551 7.68652C115.62 7.68652 114.975 8.13053 114.617 9.01855L114.628 17H111.523V9.59863C111.523 8.92546 111.391 8.43848 111.126 8.1377C110.861 7.83691 110.41 7.68652 109.772 7.68652C108.892 7.68652 108.254 8.05176 107.86 8.78223V17H104.756V5.37695H107.667ZM130.548 17C130.405 16.7207 130.301 16.3734 130.236 15.958C129.484 16.7959 128.507 17.2148 127.304 17.2148C126.165 17.2148 125.22 16.8854 124.468 16.2266C123.723 15.5677 123.351 14.737 123.351 13.7344C123.351 12.5026 123.805 11.5573 124.715 10.8984C125.632 10.2396 126.953 9.90658 128.679 9.89941H130.107V9.2334C130.107 8.69629 129.968 8.2666 129.688 7.94434C129.416 7.62207 128.983 7.46094 128.389 7.46094C127.866 7.46094 127.454 7.58626 127.153 7.83691C126.86 8.08757 126.713 8.43132 126.713 8.86816H123.608C123.608 8.19499 123.816 7.57194 124.231 6.99902C124.647 6.42611 125.234 5.97852 125.993 5.65625C126.752 5.32682 127.604 5.16211 128.55 5.16211C129.982 5.16211 131.117 5.52376 131.955 6.24707C132.8 6.96322 133.223 7.97298 133.223 9.27637V14.3145C133.23 15.4173 133.384 16.2516 133.685 16.8174V17H130.548ZM127.98 14.8408C128.439 14.8408 128.861 14.7406 129.248 14.54C129.635 14.3324 129.921 14.0566 130.107 13.7129V11.7148H128.947C127.393 11.7148 126.566 12.252 126.466 13.3262L126.455 13.5088C126.455 13.8955 126.591 14.2142 126.863 14.4648C127.135 14.7155 127.508 14.8408 127.98 14.8408ZM139.324 2.51953V5.37695H141.312V7.6543H139.324V13.4551C139.324 13.8848 139.407 14.1927 139.571 14.3789C139.736 14.5651 140.051 14.6582 140.517 14.6582C140.86 14.6582 141.165 14.6331 141.43 14.583V16.9355C140.821 17.1217 140.194 17.2148 139.55 17.2148C137.373 17.2148 136.263 16.1156 136.22 13.917V7.6543H134.522V5.37695H136.22V2.51953H139.324ZM146.317 17H143.202V5.37695H146.317V17ZM143.02 2.36914C143.02 1.90365 143.174 1.52051 143.481 1.21973C143.797 0.918945 144.223 0.768555 144.76 0.768555C145.29 0.768555 145.712 0.918945 146.027 1.21973C146.342 1.52051 146.5 1.90365 146.5 2.36914C146.5 2.8418 146.339 3.22852 146.017 3.5293C145.701 3.83008 145.283 3.98047 144.76 3.98047C144.237 3.98047 143.814 3.83008 143.492 3.5293C143.177 3.22852 143.02 2.8418 143.02 2.36914ZM148.401 11.0811C148.401 9.92806 148.623 8.90039 149.067 7.99805C149.511 7.0957 150.149 6.39746 150.979 5.90332C151.817 5.40918 152.788 5.16211 153.891 5.16211C155.459 5.16211 156.737 5.64193 157.726 6.60156C158.721 7.5612 159.276 8.86458 159.391 10.5117L159.412 11.3066C159.412 13.0898 158.914 14.5221 157.919 15.6035C156.924 16.6777 155.588 17.2148 153.912 17.2148C152.236 17.2148 150.897 16.6777 149.895 15.6035C148.899 14.5293 148.401 13.0684 148.401 11.2207V11.0811ZM151.506 11.3066C151.506 12.4095 151.714 13.2546 152.129 13.8418C152.544 14.4219 153.139 14.7119 153.912 14.7119C154.664 14.7119 155.251 14.4255 155.674 13.8525C156.096 13.2725 156.308 12.3486 156.308 11.0811C156.308 9.99967 156.096 9.16178 155.674 8.56738C155.251 7.97298 154.657 7.67578 153.891 7.67578C153.132 7.67578 152.544 7.97298 152.129 8.56738C151.714 9.15462 151.506 10.0677 151.506 11.3066ZM164.182 5.37695L164.278 6.71973C165.109 5.68132 166.223 5.16211 167.619 5.16211C168.851 5.16211 169.768 5.52376 170.369 6.24707C170.971 6.97038 171.279 8.05176 171.293 9.49121V17H168.188V9.56641C168.188 8.90755 168.045 8.43132 167.759 8.1377C167.472 7.83691 166.996 7.68652 166.33 7.68652C165.456 7.68652 164.801 8.05892 164.364 8.80371V17H161.26V5.37695H164.182Z" fill="white"/>
</svg>
